<svg width="10" height="6" viewBox="0 0 10 6" fill="none" xmlns="http://www.w3.org/2000/svg">
<path fill-rule="evenodd" clip-rule="evenodd" d="M0.112982 0.494504C0.148705 0.459719 0.191143 0.43212 0.237865 0.413289C0.284586 0.394458 0.334673 0.384766 0.385258 0.384766C0.435842 0.384766 0.485929 0.394458 0.532651 0.413289C0.579373 0.43212 0.62181 0.459719 0.657534 0.494504L5.0001 4.71316L9.34267 0.494504C9.37842 0.459775 9.42087 0.432226 9.46759 0.41343C9.51431 0.394635 9.56438 0.384961 9.61494 0.384961C9.66551 0.384961 9.71558 0.394635 9.7623 0.41343C9.80902 0.432226 9.85146 0.459775 9.88722 0.494504C9.92298 0.529234 9.95134 0.570463 9.97069 0.615839C9.99004 0.661215 10 0.709849 10 0.758964C10 0.808079 9.99004 0.856713 9.97069 0.902089C9.95134 0.947465 9.92298 0.988695 9.88722 1.02342L5.27238 5.5058C5.23665 5.54058 5.19422 5.56818 5.14749 5.58701C5.10077 5.60584 5.05068 5.61553 5.0001 5.61553C4.94952 5.61553 4.89943 5.60584 4.85271 5.58701C4.80599 5.56818 4.76355 5.54058 4.72783 5.5058L0.112982 1.02342C0.0771683 0.988726 0.0487541 0.947507 0.0293668 0.902126C0.00997949 0.856746 0 0.808096 0 0.758964C0 0.709832 0.00997949 0.661182 0.0293668 0.615802C0.0487541 0.570422 0.0771683 0.529202 0.112982 0.494504Z" fill="#8D8D8D"/>
</svg>
