<svg width="95" height="27" viewBox="0 0 95 27" fill="none" xmlns="http://www.w3.org/2000/svg">
<path d="M8.12 11L6.09 5.75C6.27667 5.31133 6.45867 4.87267 6.636 4.434C6.81333 3.99533 6.99067 3.56133 7.168 3.132C7.35467 2.69333 7.53667 2.25467 7.714 1.816C7.90067 1.37733 8.08267 0.938666 8.26 0.499999H14.56C14.4013 0.826666 14.2147 1.20467 14 1.634C13.7853 2.06333 13.566 2.49733 13.342 2.936C13.1273 3.37467 12.9267 3.78067 12.74 4.154C12.5533 4.52733 12.3993 4.83067 12.278 5.064C12.166 5.288 12.11 5.4 12.11 5.4C12.11 5.4 12.1707 5.53533 12.292 5.806C12.4133 6.06733 12.572 6.41267 12.768 6.842C12.964 7.27133 13.1787 7.738 13.412 8.242C13.6453 8.73667 13.874 9.22667 14.098 9.712C14.322 10.1973 14.5227 10.6267 14.7 11H8.12ZM0.28 11C0.28 10.3187 0.28 9.63733 0.28 8.956C0.28 8.26533 0.28 7.57933 0.28 6.898C0.28 6.21667 0.28 5.53533 0.28 4.854C0.28 4.16333 0.28 3.47733 0.28 2.796C0.28 2.41333 0.28 2.03067 0.28 1.648C0.28 1.26533 0.28 0.882666 0.28 0.499999H6.09C6.09 0.929333 6.09 1.35867 6.09 1.788C6.09 2.21733 6.09 2.64667 6.09 3.076C6.09 3.50533 6.09 3.93467 6.09 4.364C6.09 4.79333 6.09 5.22267 6.09 5.652C6.09 5.66133 6.09 5.67533 6.09 5.694C6.09 5.71267 6.09 5.73133 6.09 5.75C6.09 5.75933 6.09 5.76867 6.09 5.778C6.09 5.78733 6.09 5.80133 6.09 5.82C6.09 5.82933 6.09 5.83867 6.09 5.848C6.09 6.70667 6.09 7.56533 6.09 8.424C6.09 9.28267 6.09 10.1413 6.09 11H0.28ZM19.8076 2.32C19.8076 2.88 19.8076 3.44467 19.8076 4.014C19.8076 4.574 19.8076 5.13867 19.8076 5.708C19.8076 6.268 19.8076 6.83267 19.8076 7.402C19.8076 7.99933 19.8076 8.59667 19.8076 9.194C19.8076 9.79133 19.8076 10.3933 19.8076 11H14.9636C14.9636 10.076 14.9636 9.152 14.9636 8.228C14.9636 7.304 14.9636 6.38 14.9636 5.456C14.9636 4.93333 14.9636 4.41067 14.9636 3.888C14.9636 3.36533 14.9636 2.84267 14.9636 2.32H19.8076ZM19.7936 7.668L20.5496 3.902C20.6336 3.50067 20.7969 3.16933 21.0396 2.908C21.2916 2.63733 21.5856 2.432 21.9216 2.292C22.2576 2.152 22.6029 2.068 22.9576 2.04C23.3123 2.00267 23.6389 2.01667 23.9376 2.082C24.2363 2.138 24.4743 2.236 24.6516 2.376L23.5876 7.584C23.3169 7.36 22.9856 7.206 22.5936 7.122C22.2109 7.038 21.8236 7.01 21.4316 7.038C21.0396 7.05667 20.6943 7.122 20.3956 7.234C20.0969 7.346 19.8963 7.49067 19.7936 7.668ZM25.0148 2.824C25.6962 2.516 26.4335 2.28733 27.2268 2.138C28.0295 1.97933 28.8322 1.9 29.6348 1.9C30.4188 1.9 31.1748 1.97467 31.9028 2.124C32.6308 2.27333 33.2795 2.502 33.8488 2.81C34.4275 3.118 34.8848 3.50067 35.2208 3.958C35.5568 4.41533 35.7248 4.952 35.7248 5.568C35.7248 6.47333 35.7248 7.37867 35.7248 8.284C35.7248 9.18933 35.7248 10.0947 35.7248 11C35.3982 11 35.0715 11 34.7448 11C34.4182 11 34.0915 11 33.7648 11C33.4382 11 33.1115 11 32.7848 11C32.4582 11 32.1315 11 31.8048 11C31.4782 11 31.1515 11 30.8248 11C30.8248 10.5053 30.8248 10.0153 30.8248 9.53C30.8248 9.03533 30.8248 8.54533 30.8248 8.06C30.8248 7.892 30.7688 7.75667 30.6568 7.654C30.5448 7.55133 30.4095 7.48133 30.2508 7.444C30.0922 7.39733 29.9335 7.374 29.7748 7.374C29.4202 7.374 29.1495 7.444 28.9628 7.584C28.7855 7.724 28.6968 7.88267 28.6968 8.06C28.6968 8.23733 28.7902 8.40067 28.9768 8.55C29.1635 8.69 29.4295 8.76 29.7748 8.76C29.9428 8.76 30.1342 8.72733 30.3488 8.662C30.5635 8.59667 30.7268 8.42867 30.8388 8.158C30.6428 8.61533 30.4422 9.07267 30.2368 9.53C30.0408 9.98733 29.8448 10.4447 29.6488 10.902C29.3128 11.07 28.9582 11.1867 28.5848 11.252C28.2208 11.3267 27.8568 11.364 27.4928 11.364C27.0542 11.364 26.6295 11.3033 26.2188 11.182C25.8175 11.07 25.4535 10.902 25.1268 10.678C24.8095 10.454 24.5575 10.174 24.3708 9.838C24.1842 9.502 24.0908 9.11 24.0908 8.662C24.0908 8.39133 24.1375 8.12533 24.2308 7.864C24.3242 7.60267 24.4642 7.35533 24.6508 7.122C24.8375 6.88867 25.0708 6.68333 25.3508 6.506C25.6402 6.32867 25.9808 6.19333 26.3728 6.1C26.7648 5.99733 27.2128 5.946 27.7168 5.946C28.0435 5.946 28.3608 5.974 28.6688 6.03C28.9768 6.07667 29.2662 6.15133 29.5368 6.254C29.8168 6.35667 30.0642 6.48267 30.2788 6.632C30.5028 6.78133 30.6848 6.94933 30.8248 7.136C30.8248 7.11733 30.8248 7.10333 30.8248 7.094C30.8248 7.07533 30.8248 7.06133 30.8248 7.052C30.8248 7.03333 30.8248 7.01933 30.8248 7.01C30.8248 6.72067 30.7502 6.47333 30.6008 6.268C30.4608 6.05333 30.2648 5.88067 30.0128 5.75C29.7702 5.61 29.4855 5.50733 29.1588 5.442C28.8415 5.37667 28.5055 5.344 28.1508 5.344C27.6002 5.344 27.0448 5.414 26.4848 5.554C25.9248 5.694 25.4348 5.89933 25.0148 6.17V2.824ZM42.3824 0.0799996C42.793 0.0799996 43.213 0.117333 43.6424 0.192C44.081 0.257333 44.487 0.345999 44.8604 0.458C45.2337 0.569999 45.5277 0.691333 45.7424 0.821999L44.4824 4.84C44.4824 4.48533 44.3424 4.224 44.0624 4.056C43.7824 3.87867 43.479 3.79 43.1524 3.79C43.003 3.79 42.863 3.804 42.7324 3.832C42.6017 3.86 42.485 3.902 42.3824 3.958C42.2797 4.00467 42.191 4.07 42.1164 4.154C42.051 4.238 41.9997 4.336 41.9624 4.448C41.925 4.56 41.9064 4.686 41.9064 4.826C41.9064 4.826 41.9064 4.83067 41.9064 4.84C41.9157 4.84 41.9204 4.84 41.9204 4.84H44.4824L43.4744 8.088H41.9204C41.911 8.088 41.9064 8.088 41.9064 8.088C41.9064 8.088 41.9064 8.09267 41.9064 8.102C41.9064 8.47533 41.9064 8.81133 41.9064 9.11C41.9064 9.39933 41.9064 9.69333 41.9064 9.992C41.9064 10.2907 41.9064 10.6267 41.9064 11H37.0204C37.0204 10.6267 37.0204 10.2907 37.0204 9.992C37.0204 9.69333 37.0204 9.39933 37.0204 9.11C37.0204 8.81133 37.0204 8.47533 37.0204 8.102C37.0204 8.09267 37.0204 8.088 37.0204 8.088C37.0204 8.088 37.0157 8.088 37.0064 8.088H35.9424C36.0637 7.724 36.185 7.36467 36.3064 7.01C36.4277 6.646 36.5444 6.282 36.6564 5.918C36.7777 5.554 36.899 5.19467 37.0204 4.84V4.7C37.0204 3.776 37.2397 2.96867 37.6784 2.278C38.117 1.578 38.7377 1.03667 39.5404 0.654C40.343 0.271333 41.2904 0.0799996 42.3824 0.0799996ZM50.4596 6.128C50.5716 5.69867 50.6789 5.274 50.7816 4.854C50.8936 4.434 51.0009 4.014 51.1036 3.594C51.2156 3.16467 51.3229 2.74 51.4256 2.32H54.1556V6.128H50.4596ZM45.6576 7.346C45.6576 6.54333 45.6576 5.69867 45.6576 4.812C45.6576 3.92533 45.6576 3.08533 45.6576 2.292L50.4456 1.144C50.4456 1.60133 50.4456 2.068 50.4456 2.544C50.4456 3.02 50.4456 3.496 50.4456 3.972C50.4456 4.31733 50.4456 4.66267 50.4456 5.008C50.4456 5.35333 50.4456 5.694 50.4456 6.03C50.4456 6.03933 50.4456 6.044 50.4456 6.044C50.4456 6.044 50.4456 6.04867 50.4456 6.058C50.4456 6.23533 50.4829 6.38933 50.5576 6.52C50.6416 6.65067 50.7536 6.76267 50.8936 6.856C51.0429 6.94 51.2156 7.00533 51.4116 7.052C51.6076 7.09867 51.8269 7.122 52.0696 7.122C52.3403 7.122 52.6156 7.08 52.8956 6.996C53.1756 6.912 53.4276 6.79533 53.6516 6.646C53.8849 6.49667 54.0529 6.324 54.1556 6.128V10.384C53.7543 10.7013 53.2363 10.9347 52.6016 11.084C51.9669 11.2427 51.3323 11.322 50.6976 11.322C49.7363 11.322 48.8729 11.168 48.1076 10.86C47.3516 10.5427 46.7543 10.09 46.3156 9.502C45.8769 8.90467 45.6576 8.186 45.6576 7.346ZM58.3614 12.68C58.5294 12.4933 58.6927 12.3067 58.8514 12.12C59.0101 11.9333 59.1687 11.7467 59.3274 11.56C59.4954 11.3733 59.6587 11.1867 59.8174 11H57.1994C56.8914 10.0293 56.5834 9.06333 56.2754 8.102C55.9674 7.14067 55.6594 6.17933 55.3514 5.218C55.0434 4.24733 54.7354 3.28133 54.4274 2.32H59.5654C59.7334 3.31867 59.8967 4.31733 60.0554 5.316C60.2234 6.31467 60.3914 7.31333 60.5594 8.312C60.5594 8.312 60.5594 8.326 60.5594 8.354C60.5687 8.382 60.5734 8.396 60.5734 8.396C60.5734 8.396 60.5734 8.39133 60.5734 8.382C60.5827 8.36333 60.5874 8.34933 60.5874 8.34C60.5874 8.33067 60.5874 8.326 60.5874 8.326C60.7087 7.654 60.8254 6.98667 60.9374 6.324C61.0494 5.652 61.1614 4.98467 61.2734 4.322C61.3947 3.65 61.5114 2.98267 61.6234 2.32H66.4954C66.1221 3.47733 65.7441 4.63 65.3614 5.778C64.9881 6.926 64.6147 8.074 64.2414 9.222C63.8681 10.37 63.4901 11.5227 63.1074 12.68H58.3614Z" fill="black"/>
<path d="M0.28 25C0.28 23.8613 0.28 22.7273 0.28 21.598C0.28 20.4593 0.28 19.3253 0.28 18.196C0.28 17.58 0.28 16.964 0.28 16.348C0.28 15.732 0.28 15.116 0.28 14.5H5.124C5.124 15.0133 5.124 15.5267 5.124 16.04C5.124 16.544 5.124 17.048 5.124 17.552C5.124 18.056 5.124 18.5647 5.124 19.078C5.124 19.582 5.124 20.0907 5.124 20.604C5.124 20.604 5.124 20.6087 5.124 20.618C5.124 20.618 5.124 20.6227 5.124 20.632C5.124 20.632 5.124 20.6367 5.124 20.646C5.124 20.702 5.124 20.8093 5.124 20.968C5.124 21.1267 5.124 21.3227 5.124 21.556C5.124 21.8827 5.124 22.256 5.124 22.676C5.124 23.0867 5.124 23.4973 5.124 23.908C5.124 24.3187 5.124 24.6827 5.124 25H0.28ZM9.982 20.408C9.97267 20.4173 9.968 20.4267 9.968 20.436C9.968 20.436 9.97267 20.4407 9.982 20.45L12.67 25H7.028C6.82267 24.5147 6.61267 24.034 6.398 23.558C6.19267 23.082 5.98267 22.606 5.768 22.13C5.56267 21.6447 5.35267 21.164 5.138 20.688C5.138 20.6787 5.13333 20.674 5.124 20.674C5.124 20.6647 5.124 20.66 5.124 20.66C5.13333 20.6507 5.138 20.646 5.138 20.646C5.138 20.6367 5.138 20.632 5.138 20.632L7.098 16.32H12.586L9.982 20.408ZM17.8287 25.42C17.25 25.42 16.69 25.378 16.1487 25.294C15.6073 25.21 15.1033 25.084 14.6367 24.916C14.17 24.7387 13.7453 24.5193 13.3627 24.258C12.98 23.9967 12.6533 23.6933 12.3827 23.348C12.112 22.9933 11.902 22.5967 11.7527 22.158C11.6033 21.71 11.5287 21.2153 11.5287 20.674C11.5287 20.0393 11.6313 19.47 11.8367 18.966C12.0513 18.4527 12.35 18.0047 12.7327 17.622C13.1247 17.2393 13.582 16.922 14.1047 16.67C14.6273 16.4087 15.2013 16.2173 15.8267 16.096C16.4613 15.9653 17.1287 15.9 17.8287 15.9C18.706 15.9 19.5227 16.0027 20.2787 16.208C21.044 16.404 21.7113 16.7027 22.2807 17.104C22.8593 17.496 23.312 17.9907 23.6387 18.588C23.9653 19.1853 24.1287 19.8807 24.1287 20.674C24.1287 21.4673 23.9653 22.1627 23.6387 22.76C23.312 23.348 22.8593 23.8427 22.2807 24.244C21.7113 24.636 21.044 24.93 20.2787 25.126C19.5227 25.322 18.706 25.42 17.8287 25.42ZM17.8427 21.71C18.4213 21.71 18.832 21.598 19.0747 21.374C19.3173 21.15 19.4387 20.9073 19.4387 20.646C19.4387 20.5247 19.4107 20.4033 19.3547 20.282C19.2987 20.1607 19.21 20.0487 19.0887 19.946C18.9673 19.8433 18.804 19.764 18.5987 19.708C18.3933 19.6427 18.1413 19.61 17.8427 19.61C17.544 19.61 17.2873 19.6427 17.0727 19.708C16.8673 19.764 16.6993 19.8433 16.5687 19.946C16.4473 20.0487 16.3587 20.1607 16.3027 20.282C16.2467 20.4033 16.2187 20.5293 16.2187 20.66C16.2187 20.7907 16.2467 20.9213 16.3027 21.052C16.3587 21.1733 16.452 21.2853 16.5827 21.388C16.7133 21.4813 16.8813 21.5607 17.0867 21.626C17.292 21.682 17.544 21.71 17.8427 21.71ZM30.8756 25C30.8756 24.272 30.8756 23.5347 30.8756 22.788C30.8756 22.0413 30.8756 21.304 30.8756 20.576C30.8756 20.3053 30.8056 20.114 30.6656 20.002C30.5349 19.89 30.3762 19.8293 30.1896 19.82C30.0029 19.8107 29.8302 19.834 29.6716 19.89C29.5222 19.946 29.4289 20.002 29.3916 20.058L30.5116 16.46C30.8476 16.3107 31.2069 16.1987 31.5896 16.124C31.9722 16.0493 32.3502 16.012 32.7236 16.012C33.2462 16.012 33.7316 16.096 34.1796 16.264C34.6369 16.432 35.0056 16.698 35.2856 17.062C35.5749 17.426 35.7196 17.9113 35.7196 18.518V25H30.8756ZM24.5476 25C24.5476 24.4027 24.5476 23.8053 24.5476 23.208C24.5476 22.6013 24.5476 21.9993 24.5476 21.402C24.5476 20.7953 24.5476 20.1933 24.5476 19.596C24.5476 19.0453 24.5476 18.4993 24.5476 17.958C24.5476 17.4073 24.5476 16.8613 24.5476 16.32C25.0889 16.32 25.6256 16.32 26.1576 16.32C26.6989 16.32 27.2402 16.32 27.7816 16.32C28.3229 16.32 28.8596 16.32 29.3916 16.32C29.3916 16.656 29.3916 16.978 29.3916 17.286C29.3916 17.5847 29.3916 17.888 29.3916 18.196C29.3916 18.4947 29.3916 18.798 29.3916 19.106C29.3916 19.4047 29.3916 19.722 29.3916 20.058C29.3916 20.1793 29.3916 20.3007 29.3916 20.422C29.3916 20.534 29.3916 20.6553 29.3916 20.786C29.3916 21.4767 29.3916 22.186 29.3916 22.914C29.3916 23.642 29.3916 24.3373 29.3916 25H24.5476ZM42.4244 25.42C41.547 25.42 40.7257 25.322 39.9604 25.126C39.2044 24.93 38.537 24.636 37.9584 24.244C37.389 23.8427 36.941 23.3433 36.6144 22.746C36.2877 22.1487 36.1244 21.4533 36.1244 20.66C36.1244 20.2493 36.1664 19.8667 36.2504 19.512C36.3437 19.1573 36.4744 18.8307 36.6424 18.532C36.8104 18.224 37.011 17.944 37.2444 17.692C37.487 17.44 37.7577 17.216 38.0564 17.02C38.439 16.768 38.859 16.5627 39.3164 16.404C39.7737 16.236 40.2637 16.11 40.7864 16.026C41.3184 15.942 41.8644 15.9 42.4244 15.9C43.4977 15.9 44.4637 16.0493 45.3224 16.348C46.1904 16.6373 46.9044 17.076 47.4644 17.664C48.0337 18.252 48.3884 18.9893 48.5284 19.876L44.0344 20.674C44.0344 20.422 43.955 20.2167 43.7964 20.058C43.6377 19.8993 43.437 19.7873 43.1944 19.722C42.9517 19.6473 42.695 19.61 42.4244 19.61C42.1257 19.61 41.8504 19.652 41.5984 19.736C41.3557 19.8107 41.1644 19.9273 41.0244 20.086C40.8844 20.2353 40.8144 20.4267 40.8144 20.66C40.8144 20.8373 40.8517 20.9913 40.9264 21.122C41.0104 21.2527 41.127 21.3647 41.2764 21.458C41.4257 21.542 41.5984 21.6073 41.7944 21.654C41.9904 21.6913 42.2004 21.71 42.4244 21.71C42.6857 21.71 42.9377 21.6773 43.1804 21.612C43.4324 21.5467 43.6377 21.4393 43.7964 21.29C43.955 21.1313 44.0344 20.926 44.0344 20.674C44.8184 20.7673 45.5697 20.8653 46.2884 20.968C47.007 21.0613 47.7584 21.1593 48.5424 21.262C48.4304 22.1673 48.0944 22.9327 47.5344 23.558C46.9837 24.174 46.265 24.6407 45.3784 24.958C44.501 25.266 43.5164 25.42 42.4244 25.42ZM55.1946 21.836C55.6892 21.836 56.0719 21.7473 56.3426 21.57C56.6132 21.3927 56.7532 21.15 56.7626 20.842L61.0886 22.256C60.9206 22.844 60.5612 23.3807 60.0106 23.866C59.4692 24.342 58.7832 24.72 57.9526 25C57.1219 25.28 56.1932 25.42 55.1666 25.42C54.2892 25.42 53.4679 25.322 52.7026 25.126C51.9466 24.93 51.2792 24.636 50.7006 24.244C50.1312 23.8427 49.6832 23.3433 49.3566 22.746C49.0299 22.1487 48.8666 21.4533 48.8666 20.66C48.8666 19.8667 49.0299 19.1713 49.3566 18.574C49.6832 17.9767 50.1312 17.482 50.7006 17.09C51.2792 16.6887 51.9512 16.39 52.7166 16.194C53.4819 15.998 54.2986 15.9 55.1666 15.9C56.0532 15.9 56.8652 15.998 57.6026 16.194C58.3492 16.39 58.9886 16.6933 59.5206 17.104C60.0619 17.5053 60.4772 18.0187 60.7666 18.644C61.0652 19.26 61.2146 19.9927 61.2146 20.842H53.5846C53.5846 20.842 53.5799 20.842 53.5706 20.842C53.5706 20.842 53.5706 20.8467 53.5706 20.856C53.5706 20.996 53.6079 21.1267 53.6826 21.248C53.7572 21.3693 53.8599 21.4767 53.9906 21.57C54.1306 21.654 54.2986 21.7193 54.4946 21.766C54.6999 21.8127 54.9332 21.836 55.1946 21.836ZM55.1666 19.442C54.7092 19.442 54.3312 19.526 54.0326 19.694C53.7339 19.8527 53.5846 20.0813 53.5846 20.38C53.5846 20.3893 53.5846 20.3987 53.5846 20.408C53.5939 20.408 53.5986 20.408 53.5986 20.408H56.7206C56.7299 20.408 56.7346 20.408 56.7346 20.408C56.7346 20.3987 56.7346 20.3893 56.7346 20.38C56.7346 20.2307 56.6926 20.1 56.6086 19.988C56.5339 19.8667 56.4266 19.7687 56.2866 19.694C56.1466 19.61 55.9786 19.5493 55.7826 19.512C55.5959 19.4653 55.3906 19.442 55.1666 19.442ZM74.632 20.646C74.632 21.346 74.4874 21.976 74.198 22.536C73.9087 23.096 73.5167 23.5767 73.022 23.978C72.5367 24.3793 71.986 24.6873 71.37 24.902C70.754 25.1073 70.1147 25.21 69.452 25.21C69.116 25.21 68.766 25.1773 68.402 25.112C68.0474 25.056 67.702 24.972 67.366 24.86C67.0394 24.7387 66.7454 24.594 66.484 24.426C66.484 24.426 66.4794 24.426 66.47 24.426C66.47 24.426 66.4654 24.426 66.456 24.426C66.456 24.426 66.456 24.4307 66.456 24.44V26.68H61.612C61.612 26.1013 61.612 25.5273 61.612 24.958C61.612 24.3793 61.612 23.8053 61.612 23.236C61.612 22.6573 61.612 22.0833 61.612 21.514C61.612 20.9353 61.612 20.3613 61.612 19.792C61.612 19.2133 61.612 18.6393 61.612 18.07C61.612 17.4913 61.612 16.908 61.612 16.32H66.456C66.456 16.8147 66.456 17.3 66.456 17.776C66.456 18.252 66.456 18.728 66.456 19.204C66.456 19.68 66.456 20.17 66.456 20.674C66.456 20.8513 66.5027 21.0053 66.596 21.136C66.6894 21.2667 66.8154 21.374 66.974 21.458C67.1327 21.542 67.31 21.6073 67.506 21.654C67.7114 21.6913 67.9167 21.71 68.122 21.71C68.486 21.71 68.7847 21.6587 69.018 21.556C69.2607 21.4533 69.438 21.3227 69.55 21.164C69.6714 21.0053 69.732 20.842 69.732 20.674C69.732 20.5247 69.6994 20.3893 69.634 20.268C69.5687 20.1373 69.4707 20.0253 69.34 19.932C69.2094 19.8293 69.0414 19.75 68.836 19.694C68.6307 19.638 68.3927 19.61 68.122 19.61C67.73 19.61 67.38 19.68 67.072 19.82C66.7734 19.96 66.5727 20.1887 66.47 20.506L67.59 16.32C67.898 16.2453 68.2014 16.194 68.5 16.166C68.7987 16.1287 69.0927 16.11 69.382 16.11C69.9514 16.11 70.4974 16.1753 71.02 16.306C71.552 16.4367 72.0327 16.628 72.462 16.88C72.9007 17.132 73.2834 17.4447 73.61 17.818C73.9367 18.182 74.1887 18.602 74.366 19.078C74.5434 19.5447 74.632 20.0673 74.632 20.646ZM79.8815 20.128C79.9935 19.6987 80.1008 19.274 80.2035 18.854C80.3155 18.434 80.4228 18.014 80.5255 17.594C80.6375 17.1647 80.7448 16.74 80.8475 16.32H83.5775V20.128H79.8815ZM75.0795 21.346C75.0795 20.5433 75.0795 19.6987 75.0795 18.812C75.0795 17.9253 75.0795 17.0853 75.0795 16.292L79.8675 15.144C79.8675 15.6013 79.8675 16.068 79.8675 16.544C79.8675 17.02 79.8675 17.496 79.8675 17.972C79.8675 18.3173 79.8675 18.6627 79.8675 19.008C79.8675 19.3533 79.8675 19.694 79.8675 20.03C79.8675 20.0393 79.8675 20.044 79.8675 20.044C79.8675 20.044 79.8675 20.0487 79.8675 20.058C79.8675 20.2353 79.9048 20.3893 79.9795 20.52C80.0635 20.6507 80.1755 20.7627 80.3155 20.856C80.4648 20.94 80.6375 21.0053 80.8335 21.052C81.0295 21.0987 81.2488 21.122 81.4915 21.122C81.7622 21.122 82.0375 21.08 82.3175 20.996C82.5975 20.912 82.8495 20.7953 83.0735 20.646C83.3068 20.4967 83.4748 20.324 83.5775 20.128V24.384C83.1762 24.7013 82.6582 24.9347 82.0235 25.084C81.3888 25.2427 80.7542 25.322 80.1195 25.322C79.1582 25.322 78.2948 25.168 77.5295 24.86C76.7735 24.5427 76.1762 24.09 75.7375 23.502C75.2988 22.9047 75.0795 22.186 75.0795 21.346ZM84.0033 19.092C84.0033 18.56 84.1526 18.098 84.4513 17.706C84.7593 17.314 85.1746 16.9873 85.6973 16.726C86.2199 16.4553 86.8126 16.2547 87.4753 16.124C88.1379 15.9933 88.8286 15.928 89.5473 15.928C90.4339 15.928 91.2553 16.0073 92.0113 16.166C92.7766 16.3247 93.4673 16.5347 94.0833 16.796V20.044C93.8219 19.848 93.4766 19.68 93.0473 19.54C92.6273 19.4 92.1793 19.2927 91.7033 19.218C91.2366 19.1433 90.7933 19.106 90.3733 19.106C90.0933 19.106 89.8366 19.1247 89.6033 19.162C89.3793 19.19 89.1973 19.2367 89.0573 19.302C88.9266 19.3673 88.8613 19.4513 88.8613 19.554C88.8613 19.61 88.8799 19.652 88.9173 19.68C88.9639 19.708 89.0293 19.7267 89.1133 19.736C89.1973 19.7453 89.3046 19.75 89.4353 19.75C89.6499 19.75 89.8413 19.75 90.0093 19.75C90.1773 19.75 90.3639 19.75 90.5693 19.75C91.0359 19.75 91.5026 19.7827 91.9693 19.848C92.4453 19.904 92.8746 20.0207 93.2573 20.198C93.6493 20.3753 93.9619 20.632 94.1953 20.968C94.4286 21.2947 94.5453 21.7287 94.5453 22.27C94.5453 22.8393 94.3866 23.3247 94.0693 23.726C93.7613 24.118 93.3366 24.44 92.7953 24.692C92.2633 24.9347 91.6613 25.112 90.9893 25.224C90.3266 25.336 89.6359 25.392 88.9173 25.392C88.0679 25.392 87.2279 25.3127 86.3973 25.154C85.5759 24.9953 84.8713 24.762 84.2833 24.454V21.038C84.5166 21.29 84.8479 21.5 85.2773 21.668C85.7159 21.8267 86.1873 21.948 86.6913 22.032C87.2046 22.1067 87.6853 22.144 88.1333 22.144C88.4226 22.144 88.6839 22.13 88.9173 22.102C89.1506 22.0647 89.3326 22.0133 89.4633 21.948C89.6033 21.8733 89.6733 21.78 89.6733 21.668C89.6733 21.6213 89.6593 21.5887 89.6313 21.57C89.6033 21.5513 89.5566 21.5373 89.4913 21.528C89.4353 21.5187 89.3559 21.514 89.2533 21.514C89.1133 21.514 88.9686 21.514 88.8193 21.514C88.6699 21.514 88.5346 21.514 88.4133 21.514C88.0866 21.514 87.7226 21.5047 87.3213 21.486C86.9293 21.458 86.5373 21.4067 86.1453 21.332C85.7533 21.248 85.3939 21.122 85.0673 20.954C84.7499 20.7767 84.4933 20.5387 84.2973 20.24C84.1013 19.932 84.0033 19.5493 84.0033 19.092Z" fill="#747474"/>
</svg>
