<svg width="43" height="18" viewBox="0 0 43 18" fill="none" xmlns="http://www.w3.org/2000/svg">
<rect x="3.88016" y="0.5" width="36" height="17" rx="7" fill="#4F46E5"/>
<path d="M11.9452 6.34H13.2952L16.4752 11.53H16.5352L16.4752 10.15V6.34H17.5952V13.5H16.4152L13.0752 8.05H13.0152L13.0752 9.43V13.5H11.9452V6.34ZM20.165 7.42V9.39H23.075V10.45H20.165V12.42H23.395V13.5H19.035V6.34H23.395V7.42H20.165ZM24.0707 6.34H25.2607L26.4907 10.94L26.6607 11.63H26.7207L26.9207 10.94L28.1107 7.3H29.1707L30.3607 10.94L30.5607 11.62H30.6207L30.7707 10.94L31.9407 6.34H33.1307L31.2307 13.5H30.1107L28.8807 9.73L28.6707 9.02H28.6107L28.4107 9.73L27.1707 13.5H26.0507L24.0707 6.34Z" fill="white"/>
</svg>
